<svg width="191" height="195" viewBox="0 0 191 195" fill="none" xmlns="http://www.w3.org/2000/svg">
<path fill-rule="evenodd" clip-rule="evenodd" d="M66.6172 40.9065V40.952C66.6172 41.0127 66.6021 41.0582 66.5718 41.0886C66.5415 41.301 66.4507 41.4831 66.2993 41.6349C66.1176 41.7866 65.9208 41.8625 65.7088 41.8625C65.4666 41.8625 65.2546 41.7714 65.0729 41.5893C64.8912 41.4072 64.8004 41.1948 64.8004 40.952C64.8004 39.5864 65.1638 37.022 65.8905 33.2589C66.6172 29.4654 67.5862 25.505 68.7975 21.3777C69.0538 20.4979 69.3156 19.6479 69.5827 18.8278C67.9508 18.9891 66.3281 19.1411 64.7148 19.2838C63.7155 23.4414 62.7314 28.1301 61.7624 33.3499C60.8237 38.5394 60.1727 43.1219 59.8093 47.0975C59.4459 51.073 59.6579 53.2884 60.4452 53.7436C60.536 53.774 60.5966 53.774 60.6269 53.7436C60.7177 53.7133 60.7934 53.6222 60.854 53.4705C60.9448 53.3491 61.0357 53.2732 61.1265 53.2429C61.2476 53.2125 61.3688 53.2277 61.4899 53.2884C61.5807 53.3491 61.6413 53.425 61.6716 53.516C61.7019 53.6374 61.6867 53.7588 61.6261 53.8802C61.4747 54.1533 61.2931 54.3657 61.0811 54.5175C60.8388 54.6996 60.5512 54.7299 60.2181 54.6085C58.8857 53.9712 58.2953 51.6344 58.4467 47.5982C58.5678 43.5619 59.0826 38.9339 59.991 33.7141C60.8994 28.464 61.8533 23.6994 62.8525 19.4203C58.9463 19.7542 55.5094 19.9818 52.5419 20.1032C49.5441 20.2245 47.485 20.1183 46.3646 19.7845C45.8801 19.6024 45.547 19.3293 45.3654 18.9651C45.1837 18.6009 45.214 18.1761 45.4562 17.6905C45.6682 17.296 45.9104 17.0684 46.1829 17.0077C46.4555 16.947 46.7129 16.9925 46.9551 17.1442C47.1973 17.2656 47.3639 17.4326 47.4547 17.645C47.5456 17.8574 47.5304 18.0395 47.4093 18.1912C47.6818 18.7375 49.3019 18.9955 52.2694 18.9651C55.2066 18.9044 58.8252 18.7072 63.125 18.3733C63.9123 15.0351 64.518 12.8045 64.9419 11.6817C65.0327 11.4389 65.1841 11.272 65.3961 11.1809C65.6384 11.0899 65.8655 11.0899 66.0774 11.1809C66.3197 11.272 66.4862 11.4237 66.5771 11.6361C66.6679 11.8486 66.683 12.0762 66.6225 12.319C66.1985 13.3811 65.6384 15.3537 64.9419 18.2368C66.4257 18.1154 67.9246 17.994 69.4386 17.8726C69.5978 17.859 69.7565 17.8455 69.9148 17.8321C70.8151 15.1955 71.775 12.8874 72.7945 10.9078C74.248 8.08544 75.7469 6.81083 77.2912 7.08396C78.1997 7.44814 78.3511 8.64687 77.7454 10.6802C77.1825 12.6399 76.2573 14.8901 74.9697 17.4308C78.1709 17.1942 81.1721 17.0076 83.9734 16.8711C88.3338 16.6587 91.1651 16.7952 92.4671 17.2808C93.0728 17.5236 93.2545 17.9029 93.0122 18.4189C92.9516 18.5402 92.8608 18.6313 92.7397 18.692C92.6488 18.7223 92.5429 18.7072 92.4217 18.6465C92.3309 18.5858 92.2552 18.5099 92.1946 18.4189C92.1643 18.2975 92.1795 18.1761 92.24 18.0547C91.9978 17.4477 89.8024 17.2808 85.654 17.5539C82.3995 17.7444 78.6792 18.0189 74.493 18.3775C73.327 20.6818 72.1855 22.7896 71.0685 24.7008C69.827 26.8252 69.0094 28.1908 68.6158 28.7978C67.889 31.9843 67.344 34.7763 66.9806 37.1737C67.7073 35.3529 68.5401 33.6534 69.4788 32.0753C70.4478 30.4972 71.3108 29.693 72.0678 29.6627C72.6128 29.693 72.9762 29.9662 73.1579 30.4821C73.3396 30.998 73.4456 31.5746 73.4758 32.2119C73.5364 33.0009 73.6878 33.6231 73.9301 34.0783C74.2026 34.5031 74.7931 34.4576 75.7015 33.9417C76.6402 33.4258 78.1088 32.136 80.1073 30.0724C80.1434 30.0362 80.1795 30.0072 80.2156 29.9854C80.969 28.7078 81.9299 28.054 83.0983 28.0239C83.6131 28.0239 83.9462 28.1757 84.0976 28.4792C84.2792 28.7523 84.3398 29.0709 84.2792 29.4351C84.2187 29.7993 84.0673 30.0876 83.825 30.3C83.5222 30.7249 82.9772 31.1042 82.1899 31.4381C81.8871 31.5594 81.554 31.6657 81.1906 31.7567C80.9484 32.5458 80.8726 33.35 80.9635 34.1694C81.0543 34.9584 81.3874 35.4136 81.9628 35.535C83.2043 35.444 84.5669 34.7763 86.0507 33.5321C87.5344 32.2574 88.6397 31.1042 89.3664 30.0724C89.4573 29.9814 89.5632 29.9358 89.6844 29.9358C89.8055 29.9055 89.9115 29.9207 90.0023 29.9814C90.0932 30.0724 90.1537 30.1786 90.184 30.3C90.2143 30.3911 90.184 30.4973 90.0932 30.6187C89.3664 31.6505 88.1552 32.8644 86.4595 34.2604C84.794 35.6564 83.2346 36.3847 81.7811 36.4454C80.267 36.2027 79.4343 35.3984 79.2829 34.0328C79.2068 33.3461 79.2455 32.667 79.3991 31.9956C78.0841 33.2581 77.003 34.1647 76.1557 34.7156C75.0353 35.4136 74.1874 35.6867 73.6121 35.535C73.0671 35.3832 72.6885 35.019 72.4766 34.4424C72.2646 33.8355 72.1132 33.2134 72.0224 32.5761C71.9921 32.2422 71.9315 31.9539 71.8407 31.7111C71.7801 31.438 71.6893 31.2559 71.5682 31.1649C71.2956 31.0435 70.8868 31.4077 70.3418 32.2574C69.827 33.1071 69.282 34.1541 68.7066 35.3984C68.1616 36.6427 67.6771 37.7959 67.2531 38.858C66.8595 39.9202 66.6475 40.603 66.6172 40.9065ZM73.8799 17.5128C74.017 17.2414 74.1549 16.9668 74.2934 16.689C75.3835 14.4736 76.2163 12.5314 76.7916 10.8623C77.3972 9.16278 77.4426 8.19166 76.9279 7.94887C76.3222 7.85783 75.6258 8.55583 74.8385 10.0429C74.0815 11.5299 73.3244 13.3356 72.5674 15.4599C72.2979 16.2162 72.0399 16.9552 71.7935 17.6768C72.4979 17.6199 73.1934 17.5652 73.8799 17.5128ZM71.4666 18.644C72.1183 18.5851 72.7598 18.528 73.3911 18.4728C72.6236 19.9685 71.8797 21.3617 71.1594 22.6523C70.1904 24.4429 69.5696 25.5657 69.2971 26.0209C69.3879 25.7175 69.4636 25.414 69.5242 25.1105C69.6756 24.4732 70.0238 23.2441 70.5689 21.4233C70.8469 20.5287 71.1461 19.6023 71.4666 18.644ZM81.6448 30.7097C82.0687 29.8903 82.5532 29.4958 83.0983 29.5262C83.2194 29.6475 83.1891 29.7993 83.0074 29.9814C82.856 30.1331 82.6592 30.2697 82.417 30.3911C82.1747 30.5125 81.993 30.5883 81.8719 30.6187C81.7811 30.649 81.7054 30.6794 81.6448 30.7097Z" fill="white"/>
<path fill-rule="evenodd" clip-rule="evenodd" d="M68.5245 74.5585C68.1308 75.5599 67.2073 77.6843 65.7538 80.9315C64.7848 84.6642 63.8915 88.397 63.0739 92.1298C62.2866 95.8322 61.7416 98.9732 61.4388 101.553C61.1662 104.132 61.2874 105.559 61.8021 105.832C62.1352 105.862 62.3775 106.029 62.5289 106.333C62.65 106.545 62.6651 106.757 62.5743 106.97C62.5137 107.213 62.3623 107.395 62.1201 107.516C61.6962 107.729 61.2874 107.713 60.8937 107.471C60.0458 106.712 59.8793 104.299 60.3941 100.233C60.9391 96.166 61.8021 91.5532 62.9831 86.3941C61.681 88.8219 60.4244 90.749 59.2131 92.1753C57.8202 93.6016 56.7755 94.0113 56.0791 93.4044C55.3523 92.7974 55.1706 91.6139 55.534 89.8537C55.7762 88.8219 56.2153 87.8507 56.8512 86.9403C57.5174 85.9995 58.3047 85.4381 59.2131 85.256C59.6976 85.1953 60.1821 85.3167 60.6666 85.6202C60.9997 85.863 61.3176 86.2575 61.6205 86.8037C62.3775 85.5291 63.1345 84.1483 63.8915 82.6613C64.6159 79.7376 65.315 77.0803 65.9888 74.6895C61.985 74.9331 57.3028 75.2991 51.9421 75.7875C49.8527 76 47.7785 76.1972 45.7194 76.3793C44.7201 80.537 43.736 85.2257 42.767 90.4455C41.8283 95.6349 41.1773 100.217 40.8139 104.193C40.4505 108.169 40.6625 110.384 41.4498 110.839C41.5406 110.87 41.6012 110.87 41.6315 110.839C41.7223 110.809 41.798 110.718 41.8586 110.566C41.9494 110.445 42.0403 110.369 42.1311 110.338C42.2522 110.308 42.3733 110.323 42.4945 110.384C42.5853 110.445 42.6459 110.521 42.6762 110.612C42.7064 110.733 42.6913 110.854 42.6307 110.976C42.4793 111.249 42.2976 111.461 42.0857 111.613C41.8434 111.795 41.5558 111.825 41.2227 111.704C39.8903 111.067 39.2998 108.73 39.4512 104.694C39.5724 100.657 40.0871 96.0295 40.9956 90.8096C41.1528 89.901 41.3114 89.0069 41.4713 88.1273C39.5639 88.9325 37.6065 90.1756 35.5992 91.8567C36.3865 93.0403 36.5681 94.3452 36.1442 95.7716C35.7506 97.1979 35.0238 98.3966 33.964 99.3678C33.0556 100.187 32.1169 100.688 31.1479 100.87C30.2092 101.022 29.5279 100.809 29.1039 100.233C28.7103 99.6561 28.8768 98.6698 29.6036 97.2738C30.1486 96.2723 30.9511 95.2101 32.0109 94.0872C32.2834 93.7838 32.6014 93.4499 32.9647 93.0858C33.3584 92.7216 33.7066 92.3878 34.0094 92.0843C33.4946 91.5987 32.7679 91.1132 31.8292 90.6276C30.4969 89.96 29.3916 89.1254 28.5135 88.1239L28.492 88.0982C27.9271 88.7329 27.1479 89.5608 26.1543 90.5821C25.0037 91.7656 23.7924 92.7064 22.5206 93.4044C20.6735 94.2238 19.5077 93.9658 19.0232 92.6305C18.5387 91.2952 18.4479 89.7475 18.7507 87.9874C18.6598 88.0784 18.5538 88.1391 18.4327 88.1694C18.4024 88.1694 18.3722 88.1846 18.3419 88.215L18.0694 88.4881C17.7665 88.913 17.3426 89.4289 16.7976 90.0358C16.2828 90.6124 15.768 91.098 15.2532 91.4925C14.7385 91.887 14.3297 91.9932 14.0269 91.8112C13.6029 91.538 13.391 91.1132 13.391 90.5366C13.3607 89.96 13.4969 89.3378 13.7997 88.6702C14.1328 87.9115 14.5719 87.2135 15.117 86.5762C15.7831 85.8478 16.5099 85.4988 17.2972 85.5292C17.8423 85.5595 18.2965 85.8478 18.6598 86.3941C18.9929 85.9692 19.2503 85.6202 19.432 85.3471C19.4623 85.2864 19.4926 85.2409 19.5228 85.2105C19.6137 85.1195 19.7045 85.0588 19.7954 85.0285C20.0073 84.9678 20.2344 84.9678 20.4767 85.0285C20.7189 85.0891 20.9006 85.2105 21.0217 85.3926C21.1429 85.5747 21.1429 85.8175 21.0217 86.121C20.9006 86.4548 20.7492 87.0314 20.5675 87.8508C20.3858 88.6398 20.2647 89.4744 20.2042 90.3545C20.1739 91.2042 20.295 91.8719 20.5675 92.3574C20.8703 92.843 21.4305 92.9189 22.2481 92.585C22.9446 92.2209 23.6864 91.6746 24.4737 90.9463C25.2913 90.2179 26.0181 89.5047 26.654 88.8067C27.2709 88.1322 27.7321 87.6138 28.0374 87.2516C27.7796 86.3736 28.0291 85.2987 28.786 84.027C30.0275 82.3275 31.7535 80.9771 33.964 79.9756C36.1745 78.9438 38.3093 78.5341 40.3684 78.7465C40.6106 78.7768 40.7923 78.8982 40.9134 79.1107C41.0649 79.2928 41.1406 79.5052 41.1406 79.748C41.08 79.9908 40.9589 80.188 40.7772 80.3398C40.5955 80.4915 40.3835 80.5522 40.1413 80.5218C38.4153 80.3397 36.5833 80.7039 34.6453 81.6143C32.7376 82.4944 31.269 83.6325 30.2395 85.0285C29.543 86.0906 29.4976 86.9707 30.1032 87.6687C30.7391 88.3364 31.587 88.9585 32.6468 89.5351C33.5855 90.0207 34.3879 90.5821 35.0541 91.2194C37.3161 89.3104 39.5196 87.9291 41.6645 87.0755C42.3693 83.277 43.1002 79.7572 43.8571 76.5159C39.9509 76.8497 36.514 77.0773 33.5465 77.1987C30.5487 77.3201 28.4896 77.2139 27.3692 76.8801C26.8847 76.698 26.5516 76.4248 26.37 76.0607C26.1883 75.6965 26.2185 75.2716 26.4608 74.7861C26.6728 74.3916 26.915 74.1639 27.1875 74.1032C27.4601 74.0426 27.7174 74.0881 27.9597 74.2398C28.2019 74.3612 28.3685 74.5281 28.4593 74.7405C28.5502 74.953 28.535 75.1351 28.4139 75.2868C28.6864 75.8331 30.3064 76.091 33.274 76.0607C36.2112 76 39.8298 75.8027 44.1296 75.4689C44.9169 72.1306 45.5225 69.9001 45.9465 68.7772C46.0373 68.5344 46.1887 68.3675 46.4007 68.2765C46.6429 68.1854 46.8701 68.1854 47.082 68.2765C47.3243 68.3675 47.4908 68.5193 47.5816 68.7317C47.6725 68.9441 47.6876 69.1717 47.6271 69.4145C47.2031 70.4767 46.6429 72.4493 45.9465 75.3323C47.4302 75.2109 48.9291 75.0895 50.4432 74.9682C55.7726 74.5129 60.6175 74.1791 64.978 73.9667C65.4028 73.946 65.8132 73.9286 66.209 73.9145C66.5012 72.8947 66.7885 71.9258 67.071 71.0078C68.0703 67.7606 68.7667 65.9397 69.1604 65.5452C69.4026 65.3631 69.66 65.3176 69.9325 65.4086H70.0688L70.3413 65.4997C70.8561 65.9245 70.9015 67.017 70.4776 68.7772C70.1242 70.1937 69.5635 71.8915 68.7954 73.8704C71.0406 73.8824 72.5993 74.0511 73.4717 74.3764C74.0773 74.6192 74.259 74.9985 74.0168 75.5144C73.9562 75.6358 73.8654 75.7268 73.7442 75.7875C73.6534 75.8179 73.5474 75.8027 73.4263 75.742C73.3354 75.6813 73.2597 75.6054 73.1992 75.5144C73.1689 75.393 73.1841 75.2716 73.2446 75.1502C73.0418 74.642 71.4693 74.4423 68.5274 74.5512L68.5245 74.5585ZM67.8313 73.8743C68.6454 71.7693 69.2398 69.9944 69.6146 68.5496C69.7054 68.1854 69.766 67.8668 69.7963 67.5937C69.2702 68.8063 68.5613 70.9006 67.6696 73.8766L67.8313 73.8743ZM67.4541 74.6012L67.5397 74.5965L67.2527 75.2868C67.3208 75.0537 67.3879 74.8252 67.4541 74.6012ZM58.3955 91.4014C58.8498 90.9159 59.2888 90.3848 59.7128 89.8082C60.1367 89.2012 60.4698 88.6701 60.712 88.2149C60.4395 88.1542 60.2427 88.0025 60.1216 87.7597C59.9399 87.3955 59.7733 87.1679 59.6219 87.0769C59.5614 87.0465 59.5159 87.0314 59.4857 87.0314C58.9709 87.1527 58.5167 87.5321 58.123 88.1694C57.7294 88.8067 57.4417 89.5199 57.26 90.3089C57.1389 90.7338 57.0632 91.1283 57.0329 91.4925C57.0329 91.8566 57.1389 92.0691 57.3509 92.1298C57.5628 92.1601 57.9111 91.9173 58.3955 91.4014ZM33.3281 98.2297C34.0246 97.4407 34.5393 96.5606 34.8724 95.5895C35.2055 94.588 35.145 93.6624 34.6907 92.8126C34.5091 92.9644 34.2971 93.1616 34.0548 93.4044C33.5098 93.8596 33.0404 94.2845 32.6468 94.679C31.6475 95.7716 30.8905 96.7882 30.3757 97.729C29.8307 98.7608 29.6944 99.4285 29.9669 99.7319C30.2698 100.005 30.7542 100.005 31.4204 99.7319C32.1169 99.4285 32.7528 98.9277 33.3281 98.2297ZM17.6151 87.5777C17.6151 87.6384 17.5546 87.7446 17.4335 87.8963C17.4032 87.9267 17.3426 88.0025 17.2518 88.1239C17.0701 88.3667 16.7976 88.7005 16.4342 89.1254C16.1011 89.5199 15.768 89.8841 15.4349 90.2179C15.1321 90.5517 14.9201 90.7035 14.799 90.6731C14.6779 90.6124 14.693 90.3848 14.8444 89.9903C15.0261 89.5654 15.2835 89.1254 15.6166 88.6702C15.9497 88.1846 16.2828 87.8053 16.6159 87.5321C16.9792 87.2287 17.2972 87.168 17.5697 87.35C17.6303 87.4107 17.6454 87.4866 17.6151 87.5777Z" fill="white"/>
<path fill-rule="evenodd" clip-rule="evenodd" d="M94.1564 86.8493C94.2775 86.8189 94.3835 86.8341 94.4743 86.8948C94.5652 86.9555 94.6257 87.0465 94.656 87.1679C94.6863 87.2893 94.6712 87.4107 94.6106 87.5321C94.55 87.6232 94.4592 87.6838 94.3381 87.7142C92.7332 88.1087 91.0072 89.004 89.1601 90.4C88.827 93.6775 88.2062 97.031 87.2978 100.46C86.3894 103.89 85.2387 106.833 83.8458 109.291C82.362 111.659 80.9388 113.009 79.5762 113.343C78.2135 113.677 77.1991 113.176 76.533 111.841C75.8668 110.505 75.8516 108.578 76.4875 106.059C77.3354 103.237 78.7889 100.445 80.848 97.6834C82.9071 94.9218 85.0722 92.6002 87.3432 90.7186C87.646 88.2605 87.7671 86.2424 87.7066 84.6643C87.6763 83.0558 87.4795 82.2516 87.1161 82.2516C86.8738 82.282 86.5559 82.6765 86.1623 83.4352C85.7989 84.1939 85.3749 85.0891 84.8905 86.1209C84.3151 87.4562 83.7398 88.655 83.1645 89.7171C82.5891 90.7793 82.1046 91.3104 81.711 91.3104C81.1659 91.3104 80.8177 90.9614 80.6663 90.2634C80.5814 89.7741 80.5485 89.2474 80.5678 88.6835C80.0758 89.217 79.4736 89.8499 78.7613 90.5821C77.6106 91.7656 76.3994 92.7064 75.1276 93.4044C73.2805 94.2238 72.1147 93.9658 71.6302 92.6305C71.1457 91.2952 71.0548 89.7475 71.3576 87.9874C71.2668 88.0784 71.1608 88.1391 71.0397 88.1694C71.0094 88.1694 70.9791 88.1846 70.9488 88.215L70.6763 88.4881C70.3735 88.913 69.9496 89.4289 69.4045 90.0358C68.8898 90.6124 68.375 91.098 67.8602 91.4925C67.3454 91.887 66.9367 91.9932 66.6338 91.8112C66.2099 91.538 65.9979 91.1132 65.9979 90.5366C65.9677 89.96 66.1039 89.3378 66.4067 88.6702C66.7398 87.9115 67.1789 87.2135 67.724 86.5762C68.3901 85.8478 69.1169 85.4988 69.9042 85.5292C70.4492 85.5595 70.9034 85.8478 71.2668 86.3941C71.5999 85.9692 71.8573 85.6202 72.039 85.3471C72.0692 85.2864 72.0995 85.2409 72.1298 85.2105C72.2206 85.1195 72.3115 85.0588 72.4023 85.0285C72.6143 84.9678 72.8414 84.9678 73.0836 85.0285C73.3259 85.0891 73.5076 85.2105 73.6287 85.3926C73.7498 85.5747 73.7498 85.8175 73.6287 86.121C73.5076 86.4548 73.3562 87.0314 73.1745 87.8508C72.9928 88.6398 72.8717 89.4744 72.8111 90.3545C72.7808 91.2042 72.902 91.8719 73.1745 92.3574C73.4773 92.843 74.0375 92.9189 74.8551 92.585C75.5515 92.2209 76.2934 91.6746 77.0807 90.9463C77.8983 90.2179 78.625 89.5047 79.2609 88.8067C79.8999 88.1081 80.3717 87.5771 80.6764 87.2135C80.7185 86.7008 80.7605 86.276 80.8026 85.9389C80.8631 85.6354 81.0145 85.4381 81.2568 85.3471C81.5293 85.256 81.7715 85.2712 81.9835 85.3926C82.1955 85.4836 82.2863 85.6961 82.256 86.0299C82.1652 86.5762 82.0743 87.1528 81.9835 87.7597C81.8927 88.3667 81.817 88.9129 81.7564 89.3985C81.7261 89.8537 81.7564 90.1268 81.8472 90.2179C81.9986 90.3393 82.2257 90.0813 82.5286 89.444C82.8616 88.8067 83.2402 87.9722 83.6641 86.9403C84.2697 85.4229 84.9359 83.9814 85.6626 82.6158C86.3894 81.2501 87.0858 80.5218 87.752 80.4308C88.4787 80.5218 88.9632 81.3867 89.2055 83.0255C89.4477 84.6339 89.4629 86.7127 89.2509 89.2619C90.9769 88.0177 92.6121 87.2135 94.1564 86.8493ZM82.5286 108.472C83.6489 106.317 84.6028 103.768 85.3901 100.824C86.1774 97.8503 86.7679 94.9218 87.1615 92.0387C85.0721 93.8293 83.0736 95.9991 81.1659 98.5483C79.2582 101.067 77.941 103.662 77.2143 106.333C76.5178 109.64 76.7903 111.552 78.0319 112.068C79.2734 112.615 80.7723 111.416 82.5286 108.472ZM70.2221 87.5777C70.2221 87.6384 70.1615 87.7446 70.0404 87.8963C70.0101 87.9267 69.9496 88.0025 69.8587 88.1239C69.6771 88.3667 69.4045 88.7005 69.0412 89.1254C68.7081 89.5199 68.375 89.8841 68.0419 90.2179C67.7391 90.5517 67.5271 90.7035 67.406 90.6731C67.2849 90.6124 67.3 90.3848 67.4514 89.9903C67.6331 89.5654 67.8905 89.1254 68.2236 88.6702C68.5567 88.1846 68.8898 87.8053 69.2229 87.5321C69.5862 87.2287 69.9042 87.168 70.1767 87.35C70.2373 87.4107 70.2524 87.4866 70.2221 87.5777Z" fill="white"/>
<path fill-rule="evenodd" clip-rule="evenodd" d="M138.125 185.119C137.874 184.975 137.605 184.939 137.318 185.011V184.795C137.353 184.759 137.353 184.705 137.318 184.633C136.779 182.151 136.887 178.249 137.641 172.926C138.43 167.638 139.471 161.758 140.763 155.283C142.019 148.881 143.096 142.695 143.993 136.724C144.926 130.718 145.267 125.736 145.016 121.78C144.729 119.046 144.154 117.427 143.293 116.924C142.432 116.384 141.427 116.546 140.278 117.41C139.166 118.237 138.071 119.316 136.995 120.647C133.406 125.358 129.602 131.869 125.582 140.177C121.598 148.486 118.368 155.661 115.892 161.704C117.471 155.122 118.925 147.532 120.253 138.936C122.298 124.693 121.778 117.427 118.691 117.14C115.605 116.852 110.042 123.146 102.003 136.023C101.501 136.814 100.998 137.623 100.496 138.451C102.721 131.94 104.641 126.509 106.256 122.157C107.907 117.805 108.966 115.593 109.432 115.521C109.719 115.593 109.971 115.575 110.186 115.467C110.437 115.323 110.617 115.108 110.724 114.82C110.796 114.532 110.76 114.262 110.617 114.011C110.473 113.759 110.276 113.597 110.024 113.525C109.02 113.345 107.781 114.748 106.31 117.733C104.839 120.683 103.206 124.621 101.411 129.549C99.6527 134.476 97.8224 139.763 95.9203 145.41L95.2205 147.514C95.041 147.802 94.8436 148.144 94.6283 148.539C93.2287 150.949 91.3804 154.294 89.0835 158.574C86.8226 162.819 84.8128 166.955 83.0543 170.983C81.3317 175.048 80.6318 177.925 80.9548 179.616C81.1343 180.407 81.5829 180.874 82.3007 181.018C82.516 181.054 82.7672 181.054 83.0543 181.018C84.0951 180.767 85.405 178.932 86.9841 175.515C88.5632 172.134 90.2858 167.818 92.152 162.567C94.0541 157.352 95.9741 151.866 97.9121 146.112L98.8811 143.198C100.209 140.932 101.537 138.72 102.865 136.562C110.006 125.017 114.815 119.208 117.292 119.136C119.804 119.028 120.091 125.538 118.153 138.666C117.471 143.306 116.682 147.838 115.784 152.262C114.923 156.65 114.134 160.319 113.416 163.268C112.698 166.218 112.267 167.854 112.124 168.178C111.909 168.573 111.909 168.915 112.124 169.203C112.339 169.527 112.626 169.706 112.985 169.742C113.344 169.778 113.649 169.617 113.9 169.257C113.936 169.185 114.008 169.005 114.116 168.717C114.618 167.423 116.197 163.664 118.853 157.441C121.509 151.219 124.577 144.583 128.058 137.533C131.54 130.448 134.769 124.999 137.748 121.186C139.04 119.568 140.153 118.686 141.086 118.542C142.055 118.399 142.665 119.532 142.916 121.941C143.167 125.898 142.844 130.807 141.947 136.67C141.05 142.497 139.973 148.539 138.717 154.798C137.425 161.38 136.367 167.405 135.541 172.872C134.752 178.339 134.68 182.439 135.326 185.173C135.721 186.755 136.564 187.385 137.856 187.061C138.143 186.989 138.358 186.827 138.502 186.575C138.645 186.324 138.681 186.054 138.61 185.766C138.538 185.478 138.376 185.262 138.125 185.119ZM86.4458 172.332C84.5796 177.332 83.2337 179.795 82.4083 179.723C81.9418 179.544 82.0853 178.357 82.839 176.163C83.5926 174.005 84.6513 171.379 86.0151 168.286C87.3789 165.229 88.7247 162.315 90.0525 159.546C91.4163 156.74 92.475 154.654 93.2287 153.287C93.0133 153.863 92.816 154.438 92.6365 155.014C90.4114 161.56 88.3478 167.333 86.4458 172.332Z" fill="white"/>
<path fill-rule="evenodd" clip-rule="evenodd" d="M182.426 143.954C182.57 143.918 182.696 143.936 182.803 144.008C182.911 144.08 182.983 144.188 183.019 144.331C183.055 144.475 183.037 144.619 182.965 144.763C182.893 144.871 182.785 144.943 182.642 144.979C180.74 145.446 178.694 146.507 176.505 148.162C176.11 152.046 175.374 156.021 174.298 160.085C173.221 164.149 171.857 167.638 170.206 170.552C168.448 173.357 166.761 174.958 165.146 175.353C163.531 175.749 162.329 175.156 161.539 173.573C160.75 171.99 160.732 169.706 161.486 166.721C162.49 163.376 164.213 160.067 166.654 156.794C169.094 153.521 171.66 150.77 174.352 148.54C174.71 145.626 174.854 143.234 174.782 141.364C174.746 139.458 174.513 138.505 174.082 138.505C173.795 138.541 173.418 139.008 172.952 139.907C172.521 140.807 172.019 141.868 171.445 143.09C170.763 144.673 170.081 146.094 169.399 147.353C168.717 148.611 168.143 149.241 167.676 149.241C167.03 149.241 166.618 148.827 166.438 148C166.338 147.42 166.299 146.796 166.322 146.127C165.738 146.76 165.025 147.51 164.18 148.378C162.816 149.78 161.381 150.895 159.874 151.723C157.684 152.694 156.303 152.388 155.729 150.805C155.154 149.223 155.047 147.388 155.406 145.302C155.298 145.41 155.172 145.482 155.029 145.518C154.993 145.518 154.957 145.536 154.921 145.572L154.598 145.896C154.239 146.399 153.737 147.011 153.091 147.73C152.481 148.414 151.871 148.989 151.26 149.457C150.65 149.924 150.166 150.05 149.807 149.834C149.305 149.511 149.053 149.007 149.053 148.324C149.017 147.64 149.179 146.903 149.538 146.112C149.933 145.212 150.453 144.385 151.099 143.63C151.888 142.767 152.75 142.353 153.683 142.389C154.329 142.425 154.867 142.767 155.298 143.414C155.693 142.911 155.998 142.497 156.213 142.173C156.249 142.101 156.285 142.047 156.321 142.011C156.428 141.903 156.536 141.831 156.644 141.796C156.895 141.724 157.164 141.724 157.451 141.796C157.738 141.867 157.954 142.011 158.097 142.227C158.241 142.443 158.241 142.731 158.097 143.09C157.954 143.486 157.774 144.169 157.559 145.14C157.343 146.076 157.2 147.065 157.128 148.108C157.092 149.115 157.236 149.906 157.559 150.482C157.918 151.057 158.582 151.147 159.551 150.751C160.376 150.32 161.255 149.672 162.188 148.809C163.157 147.946 164.019 147.101 164.772 146.273C165.53 145.445 166.089 144.816 166.45 144.385C166.5 143.778 166.55 143.274 166.6 142.875C166.671 142.515 166.851 142.281 167.138 142.173C167.461 142.065 167.748 142.083 167.999 142.227C168.251 142.335 168.358 142.587 168.322 142.983C168.215 143.63 168.107 144.313 167.999 145.033C167.892 145.752 167.802 146.399 167.73 146.975C167.694 147.514 167.73 147.838 167.838 147.946C168.017 148.09 168.286 147.784 168.645 147.029C169.04 146.274 169.489 145.285 169.991 144.062C170.709 142.263 171.498 140.555 172.36 138.936C173.221 137.318 174.047 136.454 174.836 136.346C175.697 136.454 176.272 137.479 176.559 139.422C176.846 141.328 176.864 143.792 176.613 146.813C178.658 145.338 180.596 144.385 182.426 143.954ZM168.645 169.581C169.973 167.027 171.104 164.006 172.037 160.517C172.97 156.992 173.67 153.521 174.136 150.104C171.66 152.226 169.291 154.798 167.03 157.819C164.769 160.804 163.208 163.88 162.347 167.045C161.521 170.965 161.844 173.231 163.316 173.843C164.787 174.49 166.564 173.069 168.645 169.581ZM153.844 145.194C153.988 145.015 154.06 144.889 154.06 144.817C154.096 144.709 154.078 144.619 154.006 144.547C153.683 144.331 153.306 144.403 152.875 144.763C152.481 145.087 152.086 145.536 151.691 146.112C151.296 146.651 150.991 147.173 150.776 147.676C150.596 148.144 150.579 148.414 150.722 148.485C150.866 148.521 151.117 148.342 151.476 147.946C151.871 147.55 152.265 147.119 152.66 146.651C153.091 146.148 153.414 145.752 153.629 145.464C153.737 145.32 153.808 145.23 153.844 145.194Z" fill="white"/>
<path fill-rule="evenodd" clip-rule="evenodd" d="M72.6749 136.663C72.7657 136.724 72.8111 136.815 72.8111 136.937C72.8414 137.058 72.8263 137.164 72.7657 137.255C70.1918 140.593 67.5725 143.537 64.9078 146.086C62.8185 148.089 61.1379 149.455 59.8661 150.183C61.7738 151.276 63.0304 152.884 63.636 155.009C64.2719 157.133 64.4233 159.318 64.0903 161.564C63.7572 163.809 63.091 165.676 62.0917 167.163C61.0924 168.68 59.9115 169.378 58.5489 169.257C57.3982 168.953 56.7623 167.284 56.6412 164.249C56.4898 161.215 56.7017 157.497 57.2771 153.097C57.8221 148.727 58.564 144.372 59.5027 140.032C59.6761 139.225 59.8506 138.442 60.0261 137.685C59.8085 137.789 59.546 137.903 59.2384 138.029C58.4511 138.333 57.5578 138.515 56.5585 138.575C55.5593 138.606 54.6963 138.302 53.9695 137.665C53.9998 137.938 53.9544 138.439 53.8333 139.167C53.7121 139.865 53.5305 140.609 53.2882 141.398C53.0762 142.187 52.8189 142.824 52.516 143.31C52.183 143.825 51.8196 144.174 51.4259 144.357C50.9717 144.508 50.5781 144.508 50.245 144.357C49.6999 144.144 49.3517 143.689 49.2003 142.991C49.1095 142.505 49.0943 141.944 49.1549 141.307C49.2457 140.275 49.4728 139.228 49.8362 138.166C50.1996 137.073 50.6235 136.223 51.108 135.616C51.2897 135.434 51.4865 135.343 51.6985 135.343C51.9407 135.313 52.1678 135.374 52.3798 135.525C52.5615 135.677 52.6523 135.874 52.6523 136.117C52.6826 136.36 52.622 136.572 52.4706 136.754C52.2587 137.028 52.0164 137.513 51.7439 138.211C51.5016 138.909 51.2897 139.653 51.108 140.442C50.9263 141.231 50.8203 141.929 50.79 142.536C50.79 143.112 50.896 143.431 51.108 143.492C51.4411 143.522 51.7742 143.127 52.1073 142.308C52.4706 141.458 52.7583 140.502 52.9703 139.44C53.1822 138.378 53.2731 137.498 53.2428 136.8C53.0308 136.254 52.9248 135.768 52.9248 135.343C52.9248 134.858 53.0308 134.524 53.2428 134.342C53.3639 134.251 53.485 134.205 53.6062 134.205C53.9695 134.205 54.1815 134.433 54.2421 134.888C54.2723 135.101 54.2723 135.404 54.2421 135.799C54.2118 136.041 54.1815 136.33 54.1512 136.663C54.5449 137.361 55.1505 137.741 55.9681 137.801C56.8159 137.862 57.6486 137.771 58.4662 137.528C59.2792 137.296 59.8694 137.049 60.237 136.788C60.9446 133.827 61.6688 131.267 62.4097 129.107C63.4089 126.163 64.2871 124.631 65.0441 124.509C65.68 124.6 65.9374 125.238 65.8163 126.421C65.7254 127.574 65.4226 128.925 64.9078 130.473C64.3931 132.02 63.848 133.447 63.2727 134.752C62.7276 136.026 62.334 136.846 62.0917 137.21C61.1833 141.216 60.396 145.237 59.7298 149.273C60.8502 148.545 62.3642 147.27 64.2719 145.449C66.9064 142.93 69.5105 140.032 72.0844 136.754C72.1449 136.633 72.2358 136.572 72.3569 136.572C72.478 136.542 72.584 136.572 72.6749 136.663ZM64.9078 126.512C64.7262 126.785 64.3931 127.711 63.9086 129.289C63.4544 130.837 63.0001 132.582 62.5459 134.524C62.9396 133.614 63.3484 132.536 63.7723 131.292C64.1962 130.048 64.5142 128.955 64.7262 128.014C64.9684 127.043 65.029 126.542 64.9078 126.512ZM59.7298 168.028C60.6988 167.724 61.5769 166.435 62.3642 164.158C63.1515 161.913 63.4089 159.485 63.1364 156.875C62.8942 154.295 61.6678 152.323 59.4573 150.957C59.3362 151.625 59.2302 152.262 59.1394 152.869C59.1394 152.96 59.1242 153.051 59.0939 153.142C59.0031 153.81 58.8517 154.948 58.6397 156.556C58.4277 158.195 58.2763 159.91 58.1855 161.7C58.0644 163.521 58.1098 165.054 58.3218 166.298C58.5337 167.542 59.0031 168.119 59.7298 168.028Z" fill="white"/>
<path d="M14.7039 68.2765C14.9158 68.3675 15.0672 68.5193 15.1581 68.7317C15.2792 68.9441 15.2943 69.1717 15.2035 69.4145C14.6584 70.8712 13.9014 73.7087 12.9324 77.927C11.9634 82.1454 11.0247 86.7279 10.1163 91.6746C9.23817 96.6212 8.64769 100.946 8.34488 104.648C8.04207 108.351 8.28432 110.414 9.07162 110.839C9.13218 110.87 9.1776 110.87 9.20788 110.839C9.29873 110.809 9.38957 110.718 9.48041 110.566C9.54097 110.445 9.61667 110.369 9.70752 110.338C9.82864 110.308 9.94977 110.323 10.0709 110.384C10.192 110.445 10.2677 110.521 10.298 110.612C10.3283 110.733 10.3131 110.854 10.2526 110.976C10.1012 111.249 9.91949 111.461 9.70752 111.613C9.43499 111.795 9.13218 111.825 8.79909 111.704C7.49702 111.097 6.90655 108.836 7.02767 104.921C7.11851 101.037 7.603 96.5302 8.48114 91.4014C9.35929 86.2423 10.298 81.5233 11.2973 77.2442C12.2965 72.9652 13.0536 70.1429 13.5683 68.7772C13.6592 68.5344 13.8106 68.3675 14.0225 68.2765C14.2345 68.1854 14.4616 68.1854 14.7039 68.2765Z" fill="white"/>
</svg>
