<svg width="273" height="200" viewBox="0 0 273 200" fill="none" xmlns="http://www.w3.org/2000/svg">
<path d="M11.1765 91.5731C10.4879 97.7754 11.812 101.588 15.1488 103.011C17.3287 103.602 20.764 103.204 25.4548 101.819C30.1443 100.488 35.4054 98.7688 41.238 96.6617C46.6401 94.6511 51.9573 92.826 57.1896 91.1865C62.4741 89.6019 67.0734 88.6705 70.9875 88.3923C74.9003 88.1676 77.5797 89.1188 79.0258 91.2456C79.3896 91.6836 79.8417 91.802 80.3819 91.601C80.9742 91.4548 81.3847 91.0897 81.6132 90.5056C81.8939 89.9764 81.7748 89.3837 81.2557 88.7274C79.8083 86.6541 76.8856 85.8042 72.4874 86.1776C68.0892 86.5511 62.951 87.6299 57.0728 89.4143C51.1947 91.1986 45.3132 93.1169 39.4283 95.1692C33.7588 97.1731 28.7405 98.818 24.3733 100.104C20.0595 101.391 17.0521 101.799 15.351 101.327C12.8192 99.817 12.0842 95.9921 13.1459 89.8526C14.2597 83.7681 16.4725 76.5313 19.7843 68.1422C23.096 59.7531 26.7555 51.3726 30.7627 43.0008C34.7698 34.6289 38.3734 27.4266 41.5734 21.3938C44.8268 15.3623 46.9516 11.6888 47.9475 10.3731C48.283 9.79165 48.2956 9.28261 47.9853 8.84599C47.6762 8.35579 47.2549 8.07726 46.7213 8.0104C46.1878 7.94355 45.7265 8.20019 45.3375 8.78031C44.2801 10.4162 42.0933 14.4367 38.777 20.8419C35.4621 27.1935 31.7703 34.7153 27.7018 43.4074C23.688 52.0471 20.1021 60.6975 16.9442 69.3585C13.7876 77.9659 11.865 85.3708 11.1765 91.5731Z" fill="white"/>
<path fill-rule="evenodd" clip-rule="evenodd" d="M93.9852 102.112C93.9791 104.525 94.6922 105.99 96.1246 106.508C96.4442 106.57 96.7925 106.552 97.1696 106.454C98.8437 105.852 100.383 104.201 101.788 101.502C103.248 98.7499 104.378 96.3116 105.18 94.1869C105.351 93.7622 105.52 93.4179 105.688 93.154C106.584 93.7124 107.699 94.0617 109.034 94.2021C110.315 94.3411 111.546 94.3448 112.726 94.2132C113.32 94.1506 113.852 94.0802 114.323 94.0021C113.558 95.7516 113.255 97.5433 113.413 99.3774C113.621 101.795 115.057 103.252 117.72 103.747C120.291 103.703 123.077 102.486 126.08 100.094C129.137 97.7033 131.329 95.6131 132.658 93.8231C132.824 93.6127 132.882 93.4265 132.832 93.2644C132.784 93.0488 132.682 92.8586 132.525 92.6939C132.368 92.5827 132.181 92.5513 131.966 92.5996C131.752 92.5943 131.563 92.67 131.398 92.8268C130.069 94.6167 128.067 96.6044 125.39 98.7899C122.715 100.922 120.278 102.041 118.081 102.147C117.07 101.908 116.502 101.089 116.376 99.6922C116.251 98.2415 116.42 96.8248 116.882 95.4423C117.528 95.2975 118.121 95.1245 118.661 94.9235C120.067 94.3686 121.046 93.7227 121.599 92.9858C122.037 92.6213 122.317 92.1189 122.439 91.4786C122.562 90.8382 122.469 90.273 122.16 89.7828C121.906 89.2403 121.324 88.9578 120.415 88.9352C118.383 88.937 116.68 90.0134 115.305 92.1643C115.266 92.1677 115.226 92.174 115.185 92.1832C114.592 92.383 113.731 92.5493 112.604 92.6822C111.478 92.7615 110.327 92.7597 109.152 92.6769C107.87 92.5379 106.916 92.1926 106.287 91.6408C106.288 91.5872 106.316 91.5343 106.371 91.482C106.6 90.8979 106.859 90.1538 107.149 89.2495C107.44 88.2916 107.596 87.384 107.618 86.5267C107.639 85.6694 107.359 85.0727 106.779 84.7366C106.62 84.679 106.433 84.6476 106.219 84.6423C106.005 84.637 105.789 84.7121 105.571 84.8675C105.135 85.1784 104.746 85.7853 104.402 86.6882C104.114 87.5389 103.957 88.4733 103.932 89.4914C103.965 90.2964 104.16 91.0787 104.516 91.8381C104.401 92.157 104.059 92.9795 103.491 94.3058C102.925 95.5786 102.247 97.0094 101.458 98.5983C100.725 100.135 99.9961 101.457 99.2729 102.565C98.5497 103.673 97.9728 104.275 97.5422 104.372C97.1156 104.308 96.9176 103.66 96.948 102.427C96.9785 101.195 97.1212 99.7506 97.3763 98.0949C97.6848 96.4405 97.99 94.92 98.2919 93.5335C98.6473 92.1483 98.9112 91.2166 99.0836 90.7383C99.2533 90.3672 99.2626 89.9921 99.1114 89.6131C99.015 89.1817 98.7548 88.8804 98.3309 88.709C97.9069 88.5377 97.5057 88.5277 97.1273 88.6792C96.7489 88.8306 96.4748 89.0919 96.3051 89.463C96.0713 89.9641 95.8022 90.7637 95.4976 91.8619C94.8348 92.296 93.7946 92.697 92.3769 93.065C90.922 93.4579 89.4471 93.5821 87.952 93.4378C86.5104 93.2948 85.4571 92.5985 84.7922 91.3488C84.8602 90.7607 84.9263 90.253 84.9904 89.8257C85.0611 89.1305 85.0744 88.5946 85.0301 88.2182C84.943 87.4118 84.5785 87.0007 83.9366 86.9847C83.7227 86.9794 83.5067 87.0545 83.2888 87.2099C82.9064 87.5222 82.7046 88.1069 82.6834 88.9642C82.6649 89.7144 82.8309 90.5764 83.1815 91.5501C83.2045 92.7839 83.0056 94.3338 82.5848 96.1999C82.164 98.066 81.6141 99.7412 80.9352 101.226C80.311 102.658 79.7054 103.34 79.1183 103.272C78.7465 103.155 78.5732 102.588 78.5984 101.57C78.6783 100.499 78.896 99.2717 79.2514 97.8865C79.6068 96.5013 80.0137 95.1978 80.4721 93.976C80.984 92.7556 81.4331 91.9089 81.8195 91.4359C82.0949 91.1211 82.2111 90.7486 82.1682 90.3187C82.1788 89.89 82.027 89.5377 81.7126 89.2618C81.3448 88.9846 80.9463 88.8675 80.517 88.9105C80.1426 88.9012 79.7909 89.0533 79.462 89.3669C78.5797 90.4173 77.7937 91.899 77.1042 93.8121C76.4159 95.6715 75.969 97.5102 75.7635 99.328C75.6287 100.451 75.631 101.443 75.7702 102.304C76.0072 103.543 76.6025 104.362 77.556 104.761C78.1378 105.043 78.8332 105.061 79.6422 104.813C80.3455 104.508 81.0026 103.908 81.6136 103.012C82.1697 102.168 82.6522 101.054 83.061 99.6699C83.5234 98.2874 83.8768 96.9825 84.1212 95.7555C84.367 94.4748 84.4691 93.5927 84.4275 93.1091C85.6835 94.2662 87.1947 94.8398 88.9613 94.83C90.7291 94.7666 92.315 94.4843 93.719 93.983C94.2511 93.7811 94.708 93.5951 95.0898 93.4251C95.0004 93.7865 94.9084 94.1691 94.8139 94.5731C94.2154 97.1318 93.9392 99.6449 93.9852 102.112ZM117.73 93.6136C118.515 92.1855 119.388 91.5101 120.349 91.5876C120.558 91.8072 120.498 92.0738 120.169 92.3873C119.895 92.6486 119.541 92.8811 119.108 93.0848C118.675 93.2885 118.351 93.4145 118.135 93.4628C117.974 93.5124 117.838 93.5627 117.73 93.6136Z" fill="white"/>
<path fill-rule="evenodd" clip-rule="evenodd" d="M261.015 138.951C261.222 138.905 261.402 138.935 261.554 139.042C261.758 139.099 261.884 139.231 261.93 139.438C262.028 139.647 262.023 139.853 261.915 140.057C261.808 140.209 261.651 140.334 261.442 140.432C257.857 141.685 254.147 143.837 250.312 146.889C251.601 148.933 251.855 151.158 251.074 153.563C250.345 155.97 249.059 157.976 247.217 159.581C245.639 160.935 244.022 161.746 242.367 162.015C240.765 162.233 239.616 161.844 238.919 160.846C238.274 159.85 238.599 158.181 239.893 155.84C240.862 154.161 242.27 152.391 244.119 150.527C244.595 150.023 245.149 149.47 245.782 148.866C246.467 148.264 247.073 147.712 247.6 147.209C246.746 146.362 245.531 145.506 243.955 144.642C241.719 143.451 239.875 141.987 238.424 140.248C237.025 138.511 237.237 136.194 239.06 133.299C241.241 130.464 244.232 128.242 248.032 126.634C251.832 124.974 255.479 124.368 258.97 124.816C259.38 124.877 259.684 125.091 259.881 125.457C260.131 125.773 260.25 126.137 260.24 126.55C260.127 126.96 259.913 127.29 259.598 127.54C259.282 127.79 258.92 127.884 258.509 127.822C255.583 127.44 252.453 127.982 249.121 129.447C245.841 130.862 243.297 132.733 241.488 135.062C240.26 136.837 240.146 138.33 241.146 139.542C242.199 140.703 243.614 141.796 245.391 142.82C246.966 143.685 248.307 144.672 249.412 145.783C253.406 142.58 257.274 140.303 261.015 138.951ZM246.184 157.621C247.401 156.31 248.313 154.836 248.92 153.2C249.528 151.513 249.464 149.938 248.728 148.475C248.413 148.725 248.044 149.051 247.622 149.454C246.676 150.204 245.861 150.906 245.175 151.56C243.43 153.374 242.101 155.069 241.186 156.646C240.217 158.376 239.957 159.505 240.407 160.032C240.911 160.508 241.734 160.529 242.878 160.093C244.075 159.607 245.177 158.783 246.184 157.621Z" fill="white"/>
<path fill-rule="evenodd" clip-rule="evenodd" d="M239.232 107.3C239.086 106.936 238.835 106.671 238.479 106.508C238.071 106.343 237.685 106.333 237.32 106.479C236.956 106.625 236.692 106.902 236.527 107.311C235.595 109.609 234.19 114.372 232.311 121.6C230.979 126.726 229.69 132.228 228.443 138.107C228.417 138.14 228.393 138.177 228.371 138.219C228.049 138.727 227.306 139.637 226.14 140.949C225.028 142.212 223.759 143.522 222.335 144.879C220.912 146.185 219.599 147.211 218.396 147.955C217.245 148.7 216.47 148.784 216.072 148.206C215.777 147.632 215.725 146.624 215.915 145.184C216.101 143.899 216.365 142.616 216.706 141.334C217.046 140.053 217.382 138.978 217.712 138.109C217.877 137.7 217.861 137.313 217.664 136.947C217.518 136.582 217.242 136.317 216.834 136.153C216.424 136.039 216.038 136.055 215.674 136.201C215.31 136.347 215.045 136.624 214.881 137.033C214.744 137.36 214.61 137.72 214.479 138.113C213.945 138.717 213.123 139.598 212.011 140.754C210.901 141.913 209.636 143.094 208.215 144.297C206.846 145.501 205.562 146.398 204.363 146.987C202.959 147.52 202.01 147.368 201.516 146.53C201.073 145.693 200.895 144.554 200.982 143.111C201.122 141.619 201.363 140.206 201.705 138.873C202.048 137.488 202.33 136.515 202.55 135.953C202.769 135.443 202.779 135.03 202.581 134.716C202.382 134.401 202.079 134.187 201.669 134.074C201.26 133.961 200.874 133.951 200.511 134.045C200.356 134.093 200.199 134.192 200.04 134.343C199.988 134.393 199.934 134.469 199.88 134.571C199.56 135.028 199.108 135.61 198.524 136.317C197.929 135.374 197.169 134.865 196.244 134.791C194.907 134.706 193.657 135.268 192.494 136.477C192.304 136.689 192.121 136.904 191.945 137.124C191.892 137.169 191.845 137.228 191.805 137.301L191.763 137.356C187.262 142.797 182.726 147.597 178.155 151.754C174.835 154.768 172.208 156.869 170.273 158.06C171.575 151.23 173.082 144.431 174.795 137.664C175.222 137.055 175.925 135.679 176.905 133.537C177.938 131.344 178.925 128.944 179.865 126.336C180.805 123.728 181.376 121.446 181.579 119.491C181.835 117.485 181.424 116.391 180.347 116.21C179.055 116.384 177.498 118.951 175.675 123.91C173.855 128.818 172.054 134.964 170.275 142.35C168.497 149.683 167.053 157.051 165.943 164.453C164.781 171.905 164.264 178.212 164.394 183.375C164.472 188.536 165.483 191.399 167.426 191.963C169.738 192.226 171.774 191.09 173.537 188.554C175.298 186.07 176.508 182.927 177.169 179.126C177.829 175.324 177.664 171.605 176.672 167.969C175.732 164.335 173.663 161.549 170.467 159.612C172.659 158.428 175.573 156.179 179.209 152.864C182.649 149.734 186.056 146.234 189.429 142.364C189.398 142.625 189.386 142.882 189.393 143.133C189.369 144.113 189.712 144.844 190.421 145.326C190.928 145.648 191.627 145.485 192.519 144.836C193.41 144.188 194.306 143.384 195.205 142.426C196.157 141.418 196.899 140.559 197.432 139.85L197.907 139.398C197.959 139.347 198.012 139.323 198.063 139.324C198.27 139.278 198.453 139.179 198.611 139.028C198.022 142.006 198.112 144.64 198.879 146.929C199.647 149.218 201.618 149.705 204.792 148.391C206.983 147.259 209.082 145.711 211.087 143.749C212.041 142.816 212.882 141.981 213.609 141.242C213.303 142.445 213.071 143.631 212.912 144.8C212.596 147.166 212.886 148.979 213.781 150.239C214.381 150.976 215.171 151.306 216.152 151.227C217.237 151.099 218.7 150.232 220.543 148.627C222.436 147.023 224.256 145.288 226.002 143.422C226.657 142.703 227.239 142.047 227.746 141.455C227.472 142.796 227.2 144.156 226.93 145.535C225.222 154.212 224.209 161.848 223.891 168.444C223.521 175.09 224.43 178.957 226.617 180.043C227.178 180.263 227.694 180.224 228.165 179.926C228.532 179.678 228.85 179.324 229.119 178.867C229.227 178.663 229.258 178.457 229.211 178.25C229.164 178.094 229.038 177.962 228.835 177.853C228.631 177.745 228.426 177.714 228.219 177.761C228.063 177.809 227.931 177.934 227.823 178.138C227.663 178.392 227.504 178.543 227.349 178.591C227.296 178.641 227.219 178.639 227.117 178.585C225.797 177.83 225.471 174.313 226.142 168.036C226.812 161.758 227.997 154.435 229.698 146.068C231.45 137.702 233.238 129.956 235.062 122.829C236.886 115.703 238.292 110.914 239.28 108.462C239.445 108.054 239.429 107.666 239.232 107.3ZM196.698 138.284C196.696 138.387 196.588 138.565 196.376 138.818C196.323 138.868 196.217 138.995 196.058 139.197C195.738 139.602 195.261 140.158 194.626 140.864C194.043 141.52 193.461 142.125 192.881 142.678C192.352 143.233 191.986 143.481 191.781 143.425C191.578 143.317 191.613 142.93 191.887 142.267C192.214 141.552 192.67 140.816 193.255 140.056C193.842 139.245 194.424 138.615 195.001 138.165C195.632 137.665 196.175 137.575 196.63 137.896C196.731 138.001 196.753 138.131 196.698 138.284ZM180.031 119.607C179.711 120.063 179.106 121.622 178.216 124.283C177.379 126.893 176.533 129.839 175.68 133.12C176.387 131.589 177.127 129.776 177.9 127.68C178.673 125.584 179.259 123.741 179.659 122.152C180.112 120.512 180.236 119.664 180.031 119.607ZM169.485 189.924C171.145 189.45 172.692 187.295 174.126 183.461C175.559 179.679 176.098 175.565 175.745 171.119C175.441 166.726 173.439 163.323 169.739 160.91C169.505 162.039 169.298 163.117 169.118 164.145C169.115 164.299 169.085 164.453 169.03 164.607C168.847 165.737 168.542 167.665 168.114 170.388C167.685 173.164 167.356 176.07 167.126 179.109C166.844 182.197 166.857 184.803 167.165 186.926C167.473 189.049 168.246 190.048 169.485 189.924Z" fill="white"/>
<path d="M220.295 130.512C219.714 131.116 219.116 131.334 218.502 131.164C217.94 130.995 217.774 130.423 218.004 129.449C218.334 128.58 218.783 128.127 219.351 128.089C219.918 128.052 220.351 128.269 220.648 128.74C220.945 129.212 220.828 129.803 220.295 130.512Z" fill="white"/>
<path fill-rule="evenodd" clip-rule="evenodd" d="M140.073 158.626C141.454 159.021 143.067 158.339 144.913 156.579C146.712 154.663 148.521 152.309 150.341 149.517C152.213 146.726 153.796 144.159 155.09 141.818C156.435 139.478 157.244 138.002 157.517 137.39C157.573 137.185 157.552 137.004 157.453 136.846C157.406 136.639 157.282 136.481 157.078 136.373C156.925 136.317 156.744 136.339 156.536 136.437C156.329 136.483 156.197 136.609 156.14 136.814C155.976 137.222 155.248 138.52 153.958 140.707C152.668 142.893 151.14 145.332 149.374 148.022C147.661 150.663 146.034 152.918 144.494 154.789C142.955 156.608 141.804 157.353 141.04 157.025C140.634 156.757 140.599 156.085 140.935 155.01C141.323 153.885 141.872 152.531 142.58 150.949C143.508 148.857 144.334 146.685 145.059 144.433C145.836 142.182 146.065 140.201 145.747 138.491C145.481 136.73 144.221 135.615 141.967 135.147C141.659 135.087 141.404 135.004 141.2 134.895C141.1 134.79 141.025 134.685 140.976 134.58C140.931 134.321 140.938 134.038 140.997 133.73C141.112 133.268 141.251 132.833 141.416 132.424C141.633 131.965 141.822 131.635 141.981 131.432C142.196 131.076 142.256 130.717 142.162 130.353C142.121 129.94 141.924 129.599 141.57 129.333C141.214 129.117 140.83 129.056 140.415 129.149C140.054 129.192 139.74 129.39 139.473 129.745C139.26 130.049 138.991 130.507 138.667 131.118C138.394 131.73 138.171 132.421 137.998 133.191C137.877 133.91 137.911 134.633 138.099 135.36C138.179 135.695 138.312 136.007 138.498 136.296C137.22 137.98 135.33 139.843 132.829 141.885C130.254 143.936 127.91 145.013 125.796 145.116C124.823 144.885 124.276 144.098 124.155 142.753C124.035 141.357 124.197 139.994 124.642 138.664C125.263 138.524 125.834 138.358 126.354 138.164C127.706 137.63 128.649 137.009 129.181 136.3C129.602 135.949 129.871 135.466 129.99 134.849C130.108 134.233 130.018 133.689 129.721 133.218C129.476 132.696 128.917 132.424 128.042 132.402C126.087 132.404 124.448 133.44 123.124 135.509C123.087 135.513 123.048 135.519 123.009 135.528C122.438 135.72 121.61 135.88 120.525 136.008C119.441 136.084 118.334 136.082 117.203 136.003C115.97 135.869 115.051 135.537 114.446 135.006C114.448 134.954 114.475 134.903 114.527 134.853C114.747 134.291 114.997 133.575 115.276 132.705C115.556 131.783 115.707 130.909 115.727 130.085C115.747 129.26 115.478 128.685 114.92 128.362C114.767 128.307 114.587 128.276 114.381 128.271C114.175 128.266 113.967 128.338 113.758 128.488C113.338 128.787 112.963 129.371 112.633 130.24C112.355 131.059 112.204 131.958 112.18 132.937C112.212 133.712 112.4 134.465 112.742 135.196C112.632 135.502 112.303 136.294 111.756 137.57C111.211 138.795 110.559 140.172 109.8 141.701C109.094 143.179 108.393 144.452 107.697 145.518C107.001 146.584 106.446 147.164 106.032 147.257C105.621 147.195 105.431 146.571 105.46 145.385C105.489 144.199 105.627 142.809 105.872 141.216C106.169 139.624 106.463 138.161 106.753 136.827C107.095 135.494 107.349 134.597 107.515 134.137C107.678 133.78 107.687 133.419 107.542 133.054C107.449 132.639 107.199 132.349 106.791 132.185C106.383 132.02 105.997 132.01 105.632 132.156C105.268 132.302 105.005 132.553 104.841 132.91C104.606 133.413 104.334 134.23 104.025 135.36C102.746 137.064 100.837 138.954 98.2959 141.028C95.7215 143.08 93.3771 144.157 91.2629 144.259C90.2901 144.028 89.743 143.241 89.6217 141.896C89.5017 140.501 89.6642 139.137 90.1091 137.807C90.7306 137.668 91.3013 137.501 91.8211 137.308C93.1734 136.774 94.1158 136.152 94.6484 135.443C95.0691 135.092 95.3386 134.609 95.4568 133.993C95.5751 133.377 95.4855 132.833 95.1881 132.361C94.9435 131.839 94.3837 131.567 93.5087 131.545C91.5314 131.547 89.8773 132.607 88.5464 134.724C88.4636 134.761 88.3803 134.819 88.2965 134.899C85.6902 138.239 83.7089 140.254 82.3528 140.942C80.9979 141.579 80.0231 141.426 79.4284 140.483C78.8852 139.541 78.4519 138.318 78.1285 136.813C77.8979 135.724 77.5869 134.762 77.1956 133.927C76.8569 133.041 76.3298 132.487 75.6143 132.262C74.6955 131.93 73.5999 132.496 72.3276 133.961C71.0553 135.425 69.7438 137.431 68.3933 139.977C68.5064 139.567 68.6755 138.978 68.9005 138.21C69.1783 137.391 69.4573 136.521 69.7376 135.599C70.0154 134.781 70.2655 134.039 70.4879 133.373C70.7104 132.708 70.8499 132.273 70.9065 132.068C70.9682 131.657 70.8999 131.294 70.7016 130.98C70.5047 130.614 70.2016 130.374 69.7923 130.261C69.3831 130.147 68.9952 130.215 68.6285 130.464C68.3145 130.663 68.101 130.967 67.9879 131.377C67.705 132.402 67.3122 133.707 66.8094 135.294L66.8037 135.526C66.2996 137.165 65.8207 138.83 65.3668 140.521C64.9143 142.161 64.598 143.494 64.4181 144.522C64.2999 145.138 64.4165 145.631 64.7678 146.001C65.1205 146.319 65.5818 146.408 66.1519 146.267C66.7219 146.127 67.2757 145.599 67.8134 144.683C69.3439 141.11 70.6693 138.537 71.7898 136.966C72.9102 135.394 73.7027 134.588 74.1672 134.548C74.3229 134.5 74.4478 134.658 74.5418 135.022C74.6873 135.387 74.8302 135.854 74.9706 136.425C75.2501 137.619 75.6571 138.867 76.1914 140.17C76.7257 141.473 77.5 142.447 78.5141 143.091C79.5295 143.684 80.925 143.487 82.7006 142.499C83.8786 141.843 85.2739 140.648 86.8866 138.914C86.7317 139.796 86.693 140.69 86.7707 141.594C86.9707 143.92 88.3524 145.322 90.9159 145.798C93.3891 145.756 96.0705 144.585 98.9602 142.283C100.668 140.948 102.095 139.71 103.242 138.569C102.78 140.775 102.569 142.947 102.609 145.082C102.603 147.404 103.289 148.814 104.667 149.312C104.975 149.372 105.31 149.354 105.673 149.26C107.284 148.681 108.765 147.092 110.117 144.494C111.522 141.847 112.61 139.5 113.382 137.456C113.546 137.047 113.709 136.716 113.87 136.462C114.732 136.999 115.805 137.335 117.089 137.47C118.322 137.604 119.507 137.608 120.643 137.481C121.214 137.421 121.726 137.353 122.179 137.278C121.444 138.961 121.152 140.685 121.304 142.45C121.504 144.777 122.885 146.179 125.449 146.655C127.922 146.613 130.603 145.441 133.493 143.14C136.273 140.966 138.31 139.05 139.604 137.392C140.098 137.734 140.732 137.988 141.506 138.153C142.684 138.441 143.069 139.534 142.661 141.432C142.255 143.28 141.584 145.43 140.647 147.883C139.875 149.979 139.259 151.95 138.802 153.796C138.27 156.569 138.693 158.179 140.073 158.626ZM127.978 134.954C127.053 134.88 126.213 135.53 125.458 136.904C125.562 136.855 125.692 136.807 125.848 136.759C126.055 136.712 126.367 136.591 126.784 136.395C127.201 136.199 127.541 135.975 127.805 135.724C128.121 135.422 128.179 135.166 127.978 134.954ZM93.4456 134.098C92.5203 134.023 91.6802 134.673 90.9252 136.047C91.0294 135.998 91.1593 135.95 91.315 135.902C91.5222 135.856 91.8342 135.734 92.2511 135.538C92.668 135.342 93.0083 135.119 93.272 134.867C93.5885 134.566 93.6464 134.309 93.4456 134.098Z" fill="white"/>
</svg>
